<?xml version="1.0" encoding="UTF-8" standalone="no" ?>
<!DOCTYPE svg PUBLIC "-//W3C//DTD SVG 1.1//EN" "http://www.w3.org/Graphics/SVG/1.1/DTD/svg11.dtd">
<svg xmlns="http://www.w3.org/2000/svg" xmlns:xlink="http://www.w3.org/1999/xlink" version="1.1" width="1080" height="1080" viewBox="0 0 1080 1080" xml:space="preserve">
<desc>Created with Fabric.js 5.2.4</desc>
<defs>
</defs>
<g transform="matrix(1 0 0 1 540 540)" id="58776cb2-1fa6-4c89-8a08-5ffa3254ee85"  >
<rect style="stroke: none; stroke-width: 1; stroke-dasharray: none; stroke-linecap: butt; stroke-dashoffset: 0; stroke-linejoin: miter; stroke-miterlimit: 4; fill: rgb(255,255,255); fill-rule: nonzero; opacity: 1; visibility: hidden;" vector-effect="non-scaling-stroke"  x="-540" y="-540" rx="0" ry="0" width="1080" height="1080" />
</g>
<g transform="matrix(1 0 0 1 540 540)" id="2f447468-a20b-4c9e-bfd3-f1070a9de307"  >
</g>
<g transform="matrix(33.33 0 0 33.33 540 696.62)"  >
<path style="stroke: none; stroke-width: 1; stroke-dasharray: none; stroke-linecap: butt; stroke-dashoffset: 0; stroke-linejoin: miter; stroke-miterlimit: 4; fill: rgb(8,3,27); fill-rule: evenodd; opacity: 1;" vector-effect="non-scaling-stroke"  transform=" translate(-12.5, -16.7)" d="M 3.35791 12.7787 C 2.74772 13.7201 2.99956 15.0291 3.50323 17.647 C 3.8658 19.5316 4.04709 20.4738 4.67523 21.0991 C 4.8382 21.2614 5.02054 21.4052 5.2186 21.5277 C 5.98195 21.9999 6.99539 21.9999 9.02227 21.9999 L 15.9777 21.9999 C 18.0046 21.9999 19.0181 21.9999 19.7814 21.5277 C 19.9795 21.4052 20.1618 21.2614 20.3248 21.0991 C 20.9529 20.4738 21.1342 19.5316 21.4968 17.647 C 22.0004 15.0291 22.2523 13.7201 21.6421 12.7787 C 21.4864 12.5384 21.2943 12.321 21.0721 12.1332 C 20.2011 11.3975 18.7933 11.3975 15.9777 11.3975 L 9.02227 11.3975 C 6.20667 11.3975 4.79888 11.3975 3.92792 12.1332 C 3.70566 12.321 3.51363 12.5384 3.35791 12.7787 Z M 9.69518 17.1806 C 9.69518 16.7814 10.0376 16.4577 10.4601 16.4577 L 14.5398 16.4577 C 14.9622 16.4577 15.3047 16.7814 15.3047 17.1806 C 15.3047 17.5798 14.9622 17.9035 14.5398 17.9035 L 10.4601 17.9035 C 10.0376 17.9035 9.69518 17.5798 9.69518 17.1806 Z" stroke-linecap="round" />
</g>
<g transform="matrix(33.33 0 0 33.33 540.01 381.43)"  >
<path style="stroke: none; stroke-width: 1; stroke-dasharray: none; stroke-linecap: butt; stroke-dashoffset: 0; stroke-linejoin: miter; stroke-miterlimit: 4; fill: rgb(230,223,255); fill-rule: nonzero; opacity: 1;" vector-effect="non-scaling-stroke"  transform=" translate(-12.5, -7.24)" d="M 3.5762 12.4846 C 3.68271 12.3586 3.80034 12.241 3.92792 12.1332 C 4.79888 11.3975 6.20667 11.3975 9.02227 11.3975 L 15.9777 11.3975 C 18.7933 11.3975 20.2011 11.3975 21.0721 12.1332 C 21.2 12.2413 21.3179 12.3592 21.4247 12.4857 L 21.4247 9.75579 C 21.4247 8.84687 21.4247 8.09279 21.3394 7.49156 C 21.2494 6.85704 21.0531 6.29458 20.5839 5.83245 C 20.5074 5.75707 20.4266 5.68552 20.342 5.61807 C 19.8302 5.21023 19.2167 5.04345 18.5222 4.96608 C 17.8531 4.89155 17.0102 4.89157 15.9769 4.89158 L 15.6242 4.89158 C 14.6421 4.89158 14.29 4.88587 13.9711 4.80533 C 13.7837 4.75802 13.604 4.69195 13.4352 4.60878 C 13.151 4.46867 12.9033 4.25762 12.2077 3.64132 L 11.7336 3.22128 C 11.5345 3.04489 11.3987 2.9245 11.2531 2.81755 C 10.6284 2.35879 9.86779 2.08132 9.07145 2.01534 C 8.88602 1.99998 8.6968 1.99999 8.41356 2.00002 L 8.29714 2.00001 C 7.65647 1.9999 7.23365 1.99983 6.86652 2.0612 C 5.26167 2.32947 3.96392 3.45143 3.64782 4.93575 C 3.57591 5.27344 3.57602 5.66035 3.57619 6.21853 L 3.5762 12.4846 Z" stroke-linecap="round" />
</g>
<g transform="matrix(NaN NaN NaN NaN 0 0)"  >
<g style=""   >
</g>
</g>
<g transform="matrix(NaN NaN NaN NaN 0 0)"  >
<g style=""   >
</g>
</g>
</svg>