<?xml version="1.0" encoding="UTF-8" standalone="no" ?>
<!DOCTYPE svg PUBLIC "-//W3C//DTD SVG 1.1//EN" "http://www.w3.org/Graphics/SVG/1.1/DTD/svg11.dtd">
<svg xmlns="http://www.w3.org/2000/svg" xmlns:xlink="http://www.w3.org/1999/xlink" version="1.1" width="1080" height="1080" viewBox="0 0 1080 1080" xml:space="preserve">
<desc>Created with Fabric.js 5.2.4</desc>
<defs>
</defs>
<g transform="matrix(1 0 0 1 540 540)" id="14503a43-7e16-4090-9bab-8cd08af079cd"  >
<rect style="stroke: none; stroke-width: 1; stroke-dasharray: none; stroke-linecap: butt; stroke-dashoffset: 0; stroke-linejoin: miter; stroke-miterlimit: 4; fill: rgb(255,255,255); fill-rule: nonzero; opacity: 1; visibility: hidden;" vector-effect="non-scaling-stroke"  x="-540" y="-540" rx="0" ry="0" width="1080" height="1080" />
</g>
<g transform="matrix(1 0 0 1 540 540)" id="10a34246-7382-4e6d-9332-899f9c9c3ab6"  >
</g>
<g transform="matrix(NaN NaN NaN NaN 0 0)"  >
<g style=""   >
</g>
</g>
<g transform="matrix(NaN NaN NaN NaN 0 0)"  >
<g style=""   >
</g>
</g>
<g transform="matrix(33.33 0 0 33.33 540 673.33)"  >
<path style="stroke: none; stroke-width: 1; stroke-dasharray: none; stroke-linecap: butt; stroke-dashoffset: 0; stroke-linejoin: miter; stroke-miterlimit: 4; fill: rgb(8,3,27); fill-rule: nonzero; opacity: 1;" vector-effect="non-scaling-stroke"  transform=" translate(-12, -16)" d="M 22 14 L 22 11.7979 C 22 11.4227 21.9978 10.75 21.9978 10.75 L 22 10 L 2 10 L 2 10.75 L 2 14 C 2 17.7712 2 19.6569 3.17157 20.8284 C 4.34315 22 6.22876 22 10 22 L 14 22 C 17.7712 22 19.6569 22 20.8284 20.8284 C 22 19.6569 22 17.7712 22 14 Z" stroke-linecap="round" />
</g>
<g transform="matrix(33.33 0 0 33.33 540 340)"  >
<path style="stroke: none; stroke-width: 1; stroke-dasharray: none; stroke-linecap: butt; stroke-dashoffset: 0; stroke-linejoin: miter; stroke-miterlimit: 4; fill: rgb(230,223,255); fill-rule: nonzero; opacity: 1;" vector-effect="non-scaling-stroke"  transform=" translate(-12, -6)" d="M 11 4 L 10.4497 3.44975 C 10.1763 3.17633 10.0396 3.03961 9.89594 2.92051 C 9.27652 2.40704 8.51665 2.09229 7.71557 2.01738 C 7.52976 2 7.33642 2 6.94975 2 C 6.06722 2 5.62595 2 5.25839 2.06935 C 3.64031 2.37464 2.37464 3.64031 2.06935 5.25839 C 2 5.62595 2 6.06722 2 6.94975 L 2 9.25 L 2 10 L 22 10 L 21.9531 9.25 C 21.8809 8.20117 21.6973 7.51276 21.2305 6.99383 C 21.1598 6.91514 21.0849 6.84024 21.0062 6.76946 C 20.1506 6 18.8345 6 16.2021 6 L 15.8284 6 C 14.6747 6 14.0979 6 13.5604 5.84678 C 13.2651 5.7626 12.9804 5.64471 12.7121 5.49543 C 12.2237 5.22367 11.8158 4.81578 11 4 Z" stroke-linecap="round" />
</g>
<g transform="matrix(NaN NaN NaN NaN 0 0)"  >
<g style=""   >
</g>
</g>
</svg>