<svg width="122" height="48" viewBox="0 0 122 48" fill="none" xmlns="http://www.w3.org/2000/svg">
<path d="M17.88 18V17.112L20.232 16.56V1.488L13.704 18H12.24L5.712 1.488V16.56L8.112 17.112V18H2.16V17.112L4.464 16.56V1.512L2.424 0.887999V-1.43051e-06H7.584L13.656 15.024L19.56 -1.43051e-06H25.224V0.887999L22.728 1.464V16.56L25.176 17.112V18H17.88ZM27.615 -1.43051e-06H34.911V0.887999L32.799 1.392L37.359 9.216L41.559 1.464L39.471 0.863999V-1.43051e-06H45.351V0.863999L43.215 1.512L37.887 10.296V16.56L40.359 17.112V18H33.063V17.112L35.367 16.584V10.632L29.919 1.488L27.615 0.887999V-1.43051e-06ZM45.2908 16.704C45.2908 16.256 45.4348 15.888 45.7228 15.6C46.0268 15.296 46.4108 15.144 46.8748 15.144C47.3388 15.144 47.7148 15.288 48.0028 15.576C48.3068 15.848 48.4588 16.216 48.4588 16.68C48.4588 17.144 48.3148 17.528 48.0268 17.832C47.7388 18.12 47.3628 18.264 46.8988 18.264C46.4348 18.264 46.0508 18.112 45.7468 17.808C45.4428 17.504 45.2908 17.136 45.2908 16.704ZM59.6914 14.568C59.6914 15.64 59.2914 16.504 58.4914 17.16C57.6914 17.8 56.4594 18.12 54.7954 18.12C53.1474 18.12 51.8594 17.68 50.9314 16.8V14.016H51.8674L52.5634 16.368C53.1234 16.928 54.0194 17.208 55.2514 17.208C56.1154 17.208 56.7714 17.016 57.2194 16.632C57.6674 16.248 57.8914 15.784 57.8914 15.24C57.8914 14.696 57.6594 14.272 57.1954 13.968C56.7314 13.664 55.8114 13.296 54.4354 12.864C53.0754 12.416 52.1234 11.952 51.5794 11.472C51.0354 10.992 50.7634 10.28 50.7634 9.336C50.7634 8.376 51.1554 7.584 51.9394 6.96C52.7234 6.336 53.8754 6.024 55.3954 6.024C56.9154 6.024 58.1394 6.384 59.0674 7.104V9.864H58.1314L57.3874 7.56C56.8594 7.144 56.1554 6.936 55.2754 6.936C53.5314 6.936 52.6594 7.56 52.6594 8.808C52.6594 9.272 52.9074 9.68 53.4034 10.032C53.9154 10.368 54.8434 10.744 56.1874 11.16C57.5314 11.576 58.4514 12.048 58.9474 12.576C59.4434 13.088 59.6914 13.752 59.6914 14.568ZM71.2528 14.256V17.088C70.4208 17.856 69.1248 18.24 67.3648 18.24C65.6208 18.24 64.1888 17.712 63.0688 16.656C61.9648 15.6 61.4128 14.128 61.4128 12.24C61.4128 10.352 61.9808 8.864 63.1168 7.776C64.2688 6.672 65.7328 6.12 67.5088 6.12C68.2448 6.12 68.9568 6.216 69.6448 6.408C70.3328 6.584 70.8528 6.832 71.2048 7.152V10.128H70.3168L69.5248 7.512C69.0768 7.176 68.3328 7.008 67.2928 7.008C66.2528 7.008 65.4208 7.456 64.7968 8.352C64.1888 9.248 63.8848 10.552 63.8848 12.264C63.8848 15.64 65.1168 17.328 67.5808 17.328C68.3968 17.328 69.0448 17.216 69.5248 16.992L70.3648 14.256H71.2528ZM73.5244 6.36H77.5084V9.768C77.8284 8.808 78.3244 8.008 78.9964 7.368C79.6684 6.712 80.4844 6.384 81.4444 6.384C82.0364 6.384 82.7484 6.6 83.5804 7.032V9.912H82.6444L81.9004 7.944C81.5964 7.784 81.2524 7.704 80.8684 7.704C80.1644 7.704 79.4524 8.12 78.7324 8.952C78.0284 9.768 77.6764 10.648 77.6764 11.592V16.608L79.4524 17.112V18H73.5724V17.112L75.3964 16.608V7.56L73.5244 7.224V6.36ZM84.3546 6.36H88.3386V13.536C88.3386 14.8 88.4986 15.696 88.8186 16.224C89.1546 16.752 89.6986 17.016 90.4506 17.016C91.5706 17.016 92.4506 16.488 93.0906 15.432C93.7306 14.376 94.0506 12.76 94.0506 10.584V7.56L92.2986 7.248V6.36H96.2826V16.56L98.1786 17.112V18H94.1946V14.76C93.7786 15.896 93.1946 16.768 92.4426 17.376C91.7066 17.968 90.8986 18.264 90.0186 18.264C87.3946 18.264 86.0826 16.824 86.0826 13.944V7.56L84.3546 7.248V6.36ZM99.4929 6.36H103.381V9.48C104.101 7.272 105.549 6.168 107.725 6.168C108.717 6.168 109.509 6.4 110.101 6.864C110.693 7.328 111.109 8.104 111.349 9.192C112.069 7.176 113.429 6.168 115.429 6.168C116.597 6.168 117.509 6.512 118.165 7.2C118.837 7.872 119.173 8.864 119.173 10.176V16.632L121.189 17.112V18H115.189V17.112L116.917 16.584V10.776C116.917 9.464 116.741 8.568 116.389 8.088C116.037 7.592 115.509 7.344 114.805 7.344C112.533 7.344 111.397 9.44 111.397 13.632V16.608L113.437 17.112V18H107.341V17.112L109.117 16.608V11.16C109.117 9.768 108.965 8.784 108.661 8.208C108.357 7.616 107.845 7.32 107.125 7.32C106.405 7.32 105.813 7.504 105.349 7.872C104.885 8.224 104.533 8.704 104.293 9.312C103.829 10.432 103.597 11.784 103.597 13.368V16.584L105.469 17.112V18H99.4209V17.112L101.317 16.608V7.536L99.4929 7.224V6.36ZM0.96 29H5.232V38.072C5.568 37.096 6.088 36.36 6.792 35.864C7.496 35.368 8.304 35.12 9.216 35.12C10.704 35.12 11.912 35.656 12.84 36.728C13.768 37.784 14.232 39.272 14.232 41.192C14.232 43.112 13.768 44.6 12.84 45.656C11.928 46.712 10.712 47.24 9.192 47.24C8.216 47.24 7.368 46.976 6.648 46.448C5.928 45.92 5.408 45.16 5.088 44.168V47H0.96V46.112L2.952 45.56V30.224L0.96 29.864V29ZM8.88 36.2C7.84 36.2 6.968 36.656 6.264 37.568C5.576 38.464 5.232 39.664 5.232 41.168C5.232 42.656 5.56 43.864 6.216 44.792C6.888 45.704 7.776 46.16 8.88 46.16C10.832 46.16 11.808 44.504 11.808 41.192C11.808 37.864 10.832 36.2 8.88 36.2ZM25.6157 41.264C25.6157 39.536 25.3517 38.256 24.8237 37.424C24.2957 36.576 23.4317 36.152 22.2317 36.152C21.0477 36.152 20.1677 36.56 19.5917 37.376C19.0317 38.176 18.7517 39.464 18.7517 41.24C18.7517 43.016 19.0317 44.296 19.5917 45.08C20.1517 45.848 21.0077 46.232 22.1597 46.232C23.3277 46.232 24.1917 45.84 24.7517 45.056C25.3277 44.256 25.6157 42.992 25.6157 41.264ZM16.3277 41.264C16.3277 39.376 16.8637 37.888 17.9357 36.8C19.0077 35.696 20.4237 35.144 22.1837 35.144C23.9597 35.144 25.3757 35.68 26.4317 36.752C27.4877 37.824 28.0157 39.32 28.0157 41.24C28.0157 43.16 27.4877 44.64 26.4317 45.68C25.3757 46.704 23.9517 47.216 22.1597 47.216C20.3837 47.216 18.9677 46.696 17.9117 45.656C16.8557 44.616 16.3277 43.152 16.3277 41.264ZM41.6964 47H37.4724V44.576C36.7204 46.336 35.4004 47.216 33.5124 47.216C32.2484 47.216 31.2884 46.944 30.6324 46.4C29.9764 45.84 29.6484 45.064 29.6484 44.072C29.6484 42.664 30.2644 41.656 31.4964 41.048C32.7444 40.424 34.7204 40.088 37.4244 40.04V39.008C37.4244 37.872 37.1924 37.104 36.7284 36.704C36.2644 36.288 35.5764 36.08 34.6644 36.08C33.7524 36.08 32.9604 36.288 32.2884 36.704L31.4964 39.08H30.6084V36.368C31.0084 36.032 31.5604 35.752 32.2644 35.528C32.9684 35.288 33.7364 35.168 34.5684 35.168C36.2644 35.168 37.5364 35.496 38.3844 36.152C39.2484 36.792 39.6804 37.936 39.6804 39.584V45.56L41.6964 46.112V47ZM34.1364 46.208C35.1604 46.208 35.9604 45.816 36.5364 45.032C37.1284 44.232 37.4244 42.848 37.4244 40.88C34.6724 40.88 32.9924 41.304 32.3844 42.152C32.0964 42.552 31.9524 43.144 31.9524 43.928C31.9524 44.712 32.1204 45.288 32.4564 45.656C32.8084 46.024 33.3684 46.208 34.1364 46.208ZM43.6172 35.36H47.6012V38.768C47.9212 37.808 48.4172 37.008 49.0892 36.368C49.7612 35.712 50.5772 35.384 51.5372 35.384C52.1292 35.384 52.8412 35.6 53.6732 36.032V38.912H52.7372L51.9932 36.944C51.6892 36.784 51.3452 36.704 50.9612 36.704C50.2572 36.704 49.5452 37.12 48.8252 37.952C48.1212 38.768 47.7692 39.648 47.7692 40.592V45.608L49.5452 46.112V47H43.6652V46.112L45.4892 45.608V36.56L43.6172 36.224V35.36ZM62.1034 29H66.1354V45.608L68.1754 46.112V47H63.9994V44.264C63.4234 46.248 62.0554 47.24 59.8954 47.24C58.3914 47.24 57.1754 46.72 56.2474 45.68C55.3354 44.64 54.8794 43.168 54.8794 41.264C54.8794 39.344 55.3354 37.848 56.2474 36.776C57.1754 35.704 58.3834 35.168 59.8714 35.168C60.9434 35.168 61.8314 35.424 62.5354 35.936C63.2554 36.448 63.7114 37.12 63.9034 37.952V30.224L62.1034 29.864V29ZM60.2794 36.248C58.2954 36.248 57.3034 37.904 57.3034 41.216C57.3034 44.512 58.3034 46.16 60.3034 46.16C61.3754 46.16 62.2554 45.712 62.9434 44.816C63.6474 43.92 63.9994 42.72 63.9994 41.216C63.9994 39.712 63.6474 38.512 62.9434 37.616C62.2554 36.704 61.3674 36.248 60.2794 36.248Z" fill="#08031B"/>
</svg>
